# xmcd
#
# Track frame offsets:
#	150
#	12982
#	25886
#	39984
#	51088
#	62335
#	73021
#	86564
#	96880
#	114409
#	128642
#	143158
#	154720
#	169872
#	182220
#	197514
#	210968
#	230329
#	247328
#	264219
#	276174
#	290801
#
# Disc length: 4072 seconds
#
# Revision: 1
# Processed by: cddbd v1.5.2PL0 Copyright (c) Steve Scherf et al.
# Submitted via: audiograbber 1.83.01
#
DISCID=340fe616
DTITLE=Country énekesek - Örökzöld Countryzene CD1
DYEAR=2007
DGENRE=Country
TTITLE0=Don Gibson - I Can't Stop Loving You
TTITLE1=Charlie Rich - The Most Beautiful Girl
TTITLE2=Brenda Lee - End of the World
TTITLE3=Conway Twitty - It's Only Make Believe
TTITLE4=Ray Price - Crazy Arms
TTITLE5=Ferlin Husky - On The Wings of a Dove
TTITLE6=Jimmy Dean - Big Bad John
TTITLE7=Dave Dudley - Six Days on the Road
TTITLE8=Jimmy Lawton - Orange Blossom Special
TTITLE9=Loretta Doherty - Poor Poor Pityful Me
TTITLE10=The Bluegrass Yankees - Thank God I'm a Country Boy
TTITLE11=John Brooker - Ring of Fire
TTITLE12=Billie Jo Spears - Blanket on the Ground
TTITLE13=The Sheridans - Mama Don't let You Babies
TTITLE14=Dough Hawkins - Achy Breaky Heart
TTITLE15=Glen Campbell - Rhinestone Cowboy
TTITLE16=Jimmy Lawton - Midnight Special
TTITLE17=Lynn Anderson - Blue Bayou
TTITLE18=Kenny Rogers - You Decorated my Life
TTITLE19=Steve Clayton - Gentle on My Mind
TTITLE20=B J Thomas - I'm so Lonesome I Could Cry
TTITLE21=John Denver - Take Me Home Country Roads
EXTD=
EXTT0=
EXTT1=
EXTT2=
EXTT3=
EXTT4=
EXTT5=
EXTT6=
EXTT7=
EXTT8=
EXTT9=
EXTT10=
EXTT11=
EXTT12=
EXTT13=
EXTT14=
EXTT15=
EXTT16=
EXTT17=
EXTT18=
EXTT19=
EXTT20=
EXTT21=
PLAYORDER=
